<?xml version="1.0" standalone="no"?>
<!DOCTYPE svg PUBLIC "-//W3C//DTD SVG 20010904//EN"
 "http://www.w3.org/TR/2001/REC-SVG-20010904/DTD/svg10.dtd">
<svg version="1.0" xmlns="http://www.w3.org/2000/svg"
 width="1280.000000pt" height="1104.000000pt" viewBox="0 0 1280.000000 1104.000000"
 preserveAspectRatio="xMidYMid meet">
<metadata>
Created by potrace 1.15, written by Peter Selinger 2001-2017
</metadata>
<g transform="translate(0.000000,1104.000000) scale(0.100000,-0.100000)"
fill="#000000" stroke="none">
<path d="M9575 11034 c-200 -22 -410 -100 -585 -217 -98 -65 -273 -241 -340
-341 -215 -322 -272 -731 -154 -1101 103 -319 346 -601 649 -753 127 -63 272
-102 480 -128 l50 -6 -45 -20 c-25 -11 -142 -45 -260 -77 l-215 -58 -24 -184
c-14 -101 -26 -186 -27 -188 -2 -2 -21 12 -42 31 -155 140 -410 83 -501 -111
-22 -47 -26 -70 -26 -141 0 -72 4 -93 27 -135 14 -28 37 -62 52 -76 l25 -26
-2791 -2549 c-1535 -1402 -2813 -2569 -2840 -2593 l-48 -43 -64 68 c-35 38
-75 83 -90 101 l-27 32 341 312 340 313 -28 30 c-56 61 -276 301 -279 305 -1
2 -57 -20 -124 -49 l-120 -53 -66 65 -66 66 67 117 66 117 -43 47 c-240 266
-662 721 -668 721 -5 0 -141 -122 -304 -271 l-295 -271 232 -251 c127 -139
243 -265 257 -280 l26 -29 -37 -31 c-20 -18 -81 -74 -136 -124 l-99 -93 -258
281 -258 280 -51 -49 c-28 -27 -135 -126 -238 -220 l-187 -172 255 -277 c140
-152 253 -280 252 -283 -6 -13 -257 -240 -265 -240 -5 0 -123 124 -262 275
l-252 275 -64 -57 c-433 -393 -514 -470 -514 -490 -1 -15 102 -134 344 -397
l346 -376 32 14 c18 7 68 30 112 49 44 19 85 37 90 39 6 2 39 -27 73 -64 l63
-66 -66 -117 -65 -117 156 -169 156 -170 47 43 c353 327 626 573 635 575 11 2
167 -164 174 -185 1 -5 -141 -141 -318 -302 -176 -161 -320 -296 -320 -300 0
-4 21 -31 47 -60 43 -48 45 -52 29 -68 -14 -14 -37 -17 -129 -17 -150 0 -206
-22 -298 -114 -78 -78 -109 -147 -117 -258 -8 -119 25 -210 109 -298 120 -127
305 -159 465 -80 86 42 144 102 187 193 28 59 32 78 32 155 1 77 4 90 23 110
l23 22 51 -53 51 -53 31 29 c17 16 173 159 346 318 464 427 6384 5879 6597
6077 l183 168 29 -33 c16 -19 56 -47 88 -64 51 -25 69 -29 143 -29 100 0 154
20 222 83 122 113 137 291 36 435 -11 16 -19 30 -17 31 2 2 87 7 188 12 l184
9 67 187 c67 186 123 318 135 318 4 0 4 -13 0 -29 -10 -47 13 -260 39 -365
113 -445 465 -799 912 -916 219 -57 469 -52 699 15 88 25 249 104 341 165 99
67 275 243 336 335 95 146 159 299 195 468 23 104 25 378 4 482 -31 156 -112
355 -194 475 -53 78 -154 193 -214 244 -32 26 -58 50 -58 51 0 2 35 26 77 53
92 61 211 172 279 261 69 91 153 266 185 386 25 90 27 117 27 270 0 151 -3
181 -25 266 -37 135 -80 233 -150 340 -160 243 -412 414 -699 475 -113 24
-324 24 -434 0 -264 -58 -486 -194 -644 -393 l-63 -81 -59 78 c-179 238 -469
417 -769 476 -76 15 -302 26 -375 18z m333 -484 c42 -11 120 -41 172 -67 81
-40 110 -62 196 -148 81 -81 109 -116 144 -184 54 -106 87 -225 96 -346 l7
-95 87 0 c48 0 175 3 283 7 l196 6 0 112 c0 134 10 183 63 294 32 67 56 100
117 160 88 88 165 133 277 161 147 38 314 18 447 -52 97 -51 206 -166 255
-269 54 -113 66 -173 59 -305 -6 -127 -28 -202 -89 -295 -132 -206 -365 -312
-609 -278 -49 6 -91 10 -93 8 -4 -3 -66 -533 -66 -557 0 -5 28 -12 62 -16 153
-16 322 -83 433 -173 131 -107 239 -275 281 -438 25 -96 25 -294 0 -390 -73
-287 -301 -513 -598 -592 -89 -24 -290 -23 -383 1 -154 40 -294 124 -402 240
-80 84 -134 177 -174 296 -27 81 -33 113 -37 220 -3 103 -1 140 17 212 25 107
66 198 126 284 25 36 45 68 45 71 0 3 -30 39 -66 79 l-66 74 24 20 c18 15 31
18 58 12 211 -43 370 74 370 273 0 129 -47 239 -146 345 -145 153 -340 208
-484 135 -98 -50 -143 -139 -139 -275 2 -72 0 -84 -20 -103 l-22 -22 -21 25
c-11 14 -42 48 -69 77 l-49 51 -75 -43 c-42 -24 -115 -56 -163 -71 -81 -27
-99 -29 -242 -29 -135 0 -165 3 -230 23 -224 71 -397 216 -496 417 -66 135
-79 194 -79 365 0 124 3 156 23 220 84 265 275 464 525 545 151 48 301 53 455
15z"/>
</g>
</svg>
